inDegrees=no
num_controls=7
num_derivatives=13
num_iterations=94
num_multipliers=7
num_parameters=0
num_slacks=7
num_states=26
objective=5.149696
objective_accelerations=0.663389
objective_balance=0.008508
objective_effort=0.167250
objective_height=4.217211
objective_ligament=0.093338
solver_duration=1068.970083
status=Solve_Succeeded
success=true
DataType=double
version=3
OpenSimVersion=4.4-2022-07-23-0e9fedc
endheader
time	/jointset/ground_pelvis/pelvis_tilt/value	/jointset/ground_pelvis/pelvis_tx/value	/jointset/ground_pelvis/pelvis_ty/value	/jointset/hip_l/hip_flexion_l/value	/jointset/hip_l/hip_adduction_l/value	/jointset/hip_l/hip_rotation_l/value	/jointset/back/lumbar_extension/value	/jointset/patellofemoral_l/patellar_flexion_l/value	/jointset/knee_l/knee_flexion_l/value	/jointset/knee_l/knee_adduction_l/value	/jointset/knee_l/knee_rotation_l/value	/jointset/ankle_l/ankle_angle_l/value	/jointset/subtalar_l/subtalar_angle_l/value	/jointset/ground_pelvis/pelvis_tilt/speed	/jointset/ground_pelvis/pelvis_tx/speed	/jointset/ground_pelvis/pelvis_ty/speed	/jointset/hip_l/hip_flexion_l/speed	/jointset/hip_l/hip_adduction_l/speed	/jointset/hip_l/hip_rotation_l/speed	/jointset/back/lumbar_extension/speed	/jointset/patellofemoral_l/patellar_flexion_l/speed	/jointset/knee_l/knee_flexion_l/speed	/jointset/knee_l/knee_adduction_l/speed	/jointset/knee_l/knee_rotation_l/speed	/jointset/ankle_l/ankle_angle_l/speed	/jointset/subtalar_l/subtalar_angle_l/speed	/forceset/tau_hip_flexion_l	/forceset/tau_hip_adduction_l	/forceset/tau_hip_rotation_l	/forceset/tau_knee_flexion_l	/forceset/tau_ankle_angle_l	/forceset/tau_subtalar_angle_l	/forceset/tau_lumbar_extension	lambda_cid13_p0	lambda_cid13_p1	lambda_cid13_p2	lambda_cid13_p3	lambda_cid13_p4	lambda_cid13_p5	lambda_cid14_p0	/jointset/ground_pelvis/pelvis_tilt/accel	/jointset/ground_pelvis/pelvis_tx/accel	/jointset/ground_pelvis/pelvis_ty/accel	/jointset/hip_l/hip_flexion_l/accel	/jointset/hip_l/hip_adduction_l/accel	/jointset/hip_l/hip_rotation_l/accel	/jointset/back/lumbar_extension/accel	/jointset/patellofemoral_l/patellar_flexion_l/accel	/jointset/knee_l/knee_flexion_l/accel	/jointset/knee_l/knee_adduction_l/accel	/jointset/knee_l/knee_rotation_l/accel	/jointset/ankle_l/ankle_angle_l/accel	/jointset/subtalar_l/subtalar_angle_l/accel	gamma_cid13_p0	gamma_cid13_p1	gamma_cid13_p2	gamma_cid13_p3	gamma_cid13_p4	gamma_cid13_p5	gamma_cid14_p0
1	-0.3758634016020474	-1.85557807614389e-05	0.6150460745279286	1.58310267457238	-0.3479575641787542	0.1085884728523947	-0.4363294619534044	1.470058103927988	1.47005810392804	0.07193840740626899	-0.1745302938704468	0.4351915084004287	0.2476850677420492	-0.1412863942045484	0.002357432817322723	0.03281265966824069	0.02716130002026916	0.001953820630129875	-0.05489441858062324	2.574421329834709e-05	-0.1527172649695	-0.1527172649694943	-0.003325385204465614	-1.132248923284921e-05	-0.05136797920334572	-0.02770605488395206	-0.2059618440291344	0.03862051958061373	-0.01484793017218134	-0.3072562133978151	-0.02245486277593848	0.018526372264617	0.1897430852414346	-38.29734502561816	4.149348295453276	-7.213160846271169	7.272657304515492	-536.3446884808235	-74.46566302490537	-0.02419333419607384	1.302250474822964	0.1481114150727204	1.870159144168095	-6.058848184494627	-0.1132110343583317	-1.558129226656627	-0.01888175873410966	-5.439708822210834	-5.43970882221085	-0.6956229680059557	-0.03057336677674193	-1.145378090587841	-0.8655511767432098	3.969569830339099e-10	-1.256724321395021e-07	-5.118157717955812e-08	-1.059398360990633e-08	-5.934928626724548e-09	-1.54119364525673e-07	4.224860671259962e-09
1.01	-0.3772117860445948	1.246287503745071e-05	0.61546747743213	1.583072374056277	-0.347943131342333	0.1079635416674911	-0.436329315932952	1.468259457503107	1.468259457503144	0.07186941505710695	-0.1745304253853628	0.4346206584996442	0.2473657230935127	-0.1283824073911962	0.003854539011396072	0.0514570282156328	-0.03321006813249124	0.000936738010991319	-0.07008426420127421	4.356517038578927e-06	-0.2069988942241087	-0.2069988942241099	-0.01046622856964531	-1.494296950610862e-05	-0.06280449247153624	-0.03615119533754239	-0.2063033625838772	0.03863072533126487	-0.01487481260881122	-0.3062938114211186	-0.02263587444716626	0.01856421586492323	0.189904975102841	-38.31457660618845	4.100862742470402	-7.165375859500084	7.121303178824548	-536.079018051316	-74.33586418149028	-0.02420924718907509	1.285686691805489	0.1517426789449627	1.85993983996716	-6.02458000289437	-0.09534549671712821	-1.498285925962946	0.006367217147720252	-5.420422123520711	-5.420422123521571	-0.722299549757203	0.01472483270491347	-1.143168987012371	-0.8322089308926317	1.035427354498145e-09	-1.649807715606898e-07	-7.102483990227169e-08	-1.813743626436028e-08	-9.595871739809428e-09	-1.973793285338647e-07	5.060454813886549e-09
1.02	-0.3784308878375844	5.869908425131551e-05	0.6160749968477941	1.582438700084211	-0.3479387470563088	0.1071869372871635	-0.4363293568908365	1.465918388356394	1.465918388356414	0.07172921736842976	-0.1745305968608308	0.4339353672577537	0.2469622843501954	-0.115429864289252	0.005400943500317766	0.07003596196073772	-0.09351339117433365	-5.588944917736488e-05	-0.08522905766966553	-1.165149041941923e-05	-0.2612018093361151	-0.2612018093361218	-0.01756645309415089	-1.93145954742827e-05	-0.07425624742284231	-0.04452487384015926	-0.2066448811384748	0.03864093108200891	-0.01490169504561036	-0.3053314094444216	-0.0228168861183968	0.01860205946538371	0.1900668649643938	-38.33716956298986	4.051931463745717	-7.115938189676159	6.97684095462264	-535.9307000636634	-74.20827198212062	-0.02422887504698843	1.311961732541474	0.157971074042303	1.857072183710649	-6.045239162311001	-0.1083200025642892	-1.549118796204718	-0.01780582097411666	-5.423965993690376	-5.423965993690102	-0.6874991998710389	-0.03072359591565398	-1.148426427211098	-0.8512587865485048	1.575899864328343e-09	-2.030663167475835e-07	-8.994063183530819e-08	-2.506721698190057e-08	-1.353346721641745e-08	-2.391312409987092e-07	5.896963791315169e-09
1.03	-0.3795201757438922	0.000120662260514904	0.6168679106853521	1.581202436758214	-0.3479441339266817	0.1062591407568373	-0.4363296323184408	1.46303574786508	1.463035747865082	0.07151826979957093	-0.1745307989932581	0.4331354127100275	0.2464755020946889	-0.1024148287688014	0.007001612137430811	0.08852921399314269	-0.1537182404654593	-0.001014135646042365	-0.100317610558213	-5.302891539345363e-05	-0.3153067016920509	-0.315306701692048	-0.02461351864938348	-1.892907725655663e-05	-0.08574379112538531	-0.05281591817583996	-0.2067379391179665	0.03870596641602948	-0.01490158539251433	-0.3042016584168702	-0.02284369967546	0.01863053193708936	0.1900555552624668	-38.29073623117134	3.995517445282958	-7.065917047224171	6.786741650452956	-535.4767873434484	-74.03169389586786	-0.02425473245782617	1.298208401436051	0.1625963760358416	1.842809460669826	-6.004952096798905	-0.08845472507528353	-1.486838041002519	0.001257060817927772	-5.400814123153055	-5.4008141231515	-0.7118984381703594	0.01571056193026859	-1.150298307006701	-0.8156270659548471	2.115372395978602e-09	-2.411393844422906e-07	-1.088469597806949e-07	-3.199073574090093e-08	-1.747388567632673e-08	-2.80867765182499e-07	6.73348210379279e-09
1.04	-0.3804789265070946	0.000198928446648112	0.617845228592767	1.579364756082466	-0.3479588788183857	0.1051808357964553	-0.4363306093670479	1.459612645796885	1.459612645796855	0.07123713393421971	-0.1745309390832797	0.4322203067322279	0.2459062894340504	-0.08932243566273959	0.008661545474241675	0.1069167759320998	-0.2137968611279727	-0.00192749371600056	-0.1153307436796741	-0.0001519757772601803	-0.3692941247123123	-0.3692941247122996	-0.03160411239746148	-6.906109443939295e-06	-0.09728653343717381	-0.06101095486660398	-0.2068309970972173	0.03877100175004909	-0.01490147573933514	-0.3030719073893323	-0.02287051323257514	0.01865900440875986	0.1900442455607706	-38.24978961401436	3.938714947593736	-7.014292672843	6.603576967995751	-535.140652714254	-73.85807893033537	-0.02428438612001669	1.327433249663742	0.1698240139818116	1.835934165021077	-6.019993436588582	-0.09934237718289633	-1.534034842787476	-0.0293197083514771	-5.400472126555473	-5.400472126555188	-0.6762048384400421	-0.02839610599666275	-1.159466149060301	-0.832057257565182	1.947792306611173e-09	-2.784256474838097e-07	-1.247771086547129e-07	-3.782265840535951e-08	-2.129925437350601e-08	-3.15946041222424e-07	6.591380029324491e-09
1.05	-0.3813064348778183	0.0002941737800863823	0.6190058073049016	1.576927083681201	-0.3479825304840846	0.1039527853100949	-0.436332265029341	1.455650402532188	1.455650402532098	0.07088644799001131	-0.1745309056099468	0.4311895745341254	0.2452556819131473	-0.07617320614388629	0.01040580771141843	0.1251727821254206	-0.2737006400431432	-0.002796175786140593	-0.1302620963957621	-0.0001288556810886321	-0.4231204458662781	-0.4231204458662835	-0.03852185530312967	1.361729732230437e-05	-0.1088613245542377	-0.06908883903916058	-0.2070093505822442	0.03879067183986092	-0.01488319505957596	-0.3015686129790341	-0.02304339409861465	0.01875028327467129	0.1901609788129515	-38.23008439545721	3.834094573975362	-6.927333976388072	6.370896231612138	-534.6307900830574	-73.71168704760554	-0.02431738244188713	1.309573145154582	0.1794615205974571	1.816501128253566	-5.970022827375231	-0.07960489268018929	-1.470111628618859	0.02567304586463779	-5.368601037689555	-5.368601037692415	-0.6979029614493211	0.01723209682415054	-1.156712498262875	-0.792330397561441	1.758116822836945e-09	-3.156873228799166e-07	-1.406142519327506e-07	-4.362046869186366e-08	-2.512102776559998e-08	-3.508162470078533e-07	6.418696067764138e-09
